<svg width="24" height="24" viewBox="0 0 24 24" fill="none" xmlns="http://www.w3.org/2000/svg">
    <path fill-rule="evenodd" clip-rule="evenodd" d="M16.2426 7.75735C15.9079 7.42261 15.3652 7.42262 15.0305 7.75735L12 10.7878L8.96954 7.75735C8.63481 7.42261 8.09209 7.42261 7.75736 7.75735C7.42262 8.09209 7.42262 8.6348 7.75736 8.96953L10.7878 12L7.75736 15.0304C7.42262 15.3652 7.42262 15.9079 7.75736 16.2426C8.09209 16.5774 8.63481 16.5774 8.96954 16.2426L12 13.2122L15.0305 16.2426C15.3652 16.5774 15.9079 16.5774 16.2426 16.2426C16.5774 15.9079 16.5774 15.3652 16.2426 15.0304L13.2122 12L16.2426 8.96953C16.5774 8.6348 16.5774 8.09209 16.2426 7.75735Z" fill="currentColor"/>
</svg>
